<svg xmlns="http://www.w3.org/2000/svg" xmlns:xlink="http://www.w3.org/1999/xlink" version="1.1" x="0px" y="0px" viewBox="0 0 100 125" enable-background="new 0 0 100 100" xml:space="preserve"><g><g><polygon points="50.824,53.018 39.08,66.375 31.017,57.98 30.865,57.582 17.508,73.166 64.25,73.166   "/><circle cx="24.615" cy="48.038" r="4.128"/></g></g><path d="M10.938,34.038v46.333H71.88V34.038H10.938z M67.636,76.785H15.182V37.624h52.454V76.785z"/><polygon points="19.136,26.833 19.136,32.063 23.38,32.063 23.38,30.419 75.834,30.419 75.834,69.58 73.917,69.58 73.917,73.166   80.078,73.166 80.078,26.833 "/><polygon points="27.176,19.833 27.176,25.063 31.42,25.063 31.42,23.42 83.874,23.42 83.874,62.58 81.957,62.58 81.957,66.166   88.118,66.166 88.118,19.833 "/><text x="0" y="115" fill="#000000" font-size="5px" font-weight="bold" font-family="'Helvetica Neue', Helvetica, Arial-Unicode, Arial, Sans-serif">Created by Antar</text><text x="0" y="120" fill="#000000" font-size="5px" font-weight="bold" font-family="'Helvetica Neue', Helvetica, Arial-Unicode, Arial, Sans-serif">from the Noun Project</text></svg>